<svg xmlns="http://www.w3.org/2000/svg" viewBox="0 0 409.77 197.1"><defs><style>.cls-1{fill:#f3b738;}.cls-2{fill:#1d1d1b;}.cls-3{fill:#e32535;}.cls-4{fill:#008d36;}.cls-5{fill:#29235c;}.cls-6{fill:#662483;}</style></defs><g id="Camada_2" data-name="Camada 2"><g id="Layer_1" data-name="Layer 1"><polygon class="cls-1" points="183.59 54.09 218.1 54.09 280.3 25.78 280.3 0 183.59 54.09"/><path class="cls-2" d="M16,71.19H4.78V76H0V66.41H41.27V76H36.49V71.19H25.25v35h4.43v4.43H11.6v-4.43H16Z"/><path class="cls-2" d="M52.29,88.25v18h4.42v4.43H39v-4.43h4.42v-24H39V77.82h13.3V84q3.78-6.93,10.43-6.93a5.78,5.78,0,0,1,2.09.39V87H59.64V84C56.84,84,54.39,85.43,52.29,88.25Z"/><path class="cls-2" d="M82.33,77.82v28.39h4.42v4.43H69v-4.43h4.42v-24H69V77.82ZM73.45,72.3V63.45h8.88V72.3Z"/><path class="cls-2" d="M92.14,111V67.87H87.71V63.45H101V84a13.44,13.44,0,0,1,4.63-5.2,12.08,12.08,0,0,1,6.49-1.73,10.72,10.72,0,0,1,9,4.42q3.36,4.43,3.35,11.92,0,8.19-3.79,13.08a12.17,12.17,0,0,1-10.13,4.88,12.92,12.92,0,0,1-5.14-1,14,14,0,0,1-4.43-3.05h-.57L99.7,111Zm8.87-8.1a17.14,17.14,0,0,0,3.64,2.34,7.94,7.94,0,0,0,3.31.8,5.84,5.84,0,0,0,5.16-3.2,16.2,16.2,0,0,0,1.94-8.46q0-5.35-1.63-8a5.34,5.34,0,0,0-4.87-2.66,7.6,7.6,0,0,0-4,1.14,12.34,12.34,0,0,0-3.57,3.4Z"/><path class="cls-2" d="M152.67,110.64v-6.19a14.29,14.29,0,0,1-4.8,5.2,11.92,11.92,0,0,1-6.42,1.73,8.84,8.84,0,0,1-6.9-2.74,10.88,10.88,0,0,1-2.5-7.6V82.25h-4.42V77.82h13.3V100a6.2,6.2,0,0,0,1,3.81,3.44,3.44,0,0,0,2.91,1.27,7.34,7.34,0,0,0,3.87-1.22,17.1,17.1,0,0,0,4-3.62v-18h-4.42V77.82h13.3v28.39H166v4.43Z"/><path class="cls-2" d="M183.48,84a14.37,14.37,0,0,1,4.8-5.2,12,12,0,0,1,6.42-1.73,8.84,8.84,0,0,1,6.91,2.75q2.49,2.74,2.49,7.59v18.79h4.42v4.43h-17v-4.43h3.68V88.46a6.29,6.29,0,0,0-1-3.81,3.47,3.47,0,0,0-2.93-1.27,7.3,7.3,0,0,0-3.84,1.22,17.74,17.74,0,0,0-4,3.65v18h3.67v4.43h-17v-4.43h4.42v-24h-4.42V77.82h13.3Z"/><path class="cls-2" d="M232.05,106.84a17.67,17.67,0,0,1-4.82,3.41,11.8,11.8,0,0,1-5,1.13,10.1,10.1,0,0,1-7.24-2.7,9,9,0,0,1-2.85-6.83q0-5.61,4.15-8.23T229.33,91h1.5V87.12c0-3.75-1.83-5.62-5.47-5.62a8.89,8.89,0,0,0-5.53,2l-.39,2.84h-4.81V79.83a28.72,28.72,0,0,1,12.16-2.75q12.92,0,12.91,10v14.4q0,4.81,2.54,4.81a5.17,5.17,0,0,0,1.14-.14l.39,4.54a14.6,14.6,0,0,1-4.53.74A7.62,7.62,0,0,1,232.05,106.84Zm-1.22-3.43V95h-1.19c-2.94,0-5.16.49-6.63,1.46a4.93,4.93,0,0,0-2.22,4.43,5,5,0,0,0,1.31,3.55,4.23,4.23,0,0,0,3.27,1.44,6.51,6.51,0,0,0,2.66-.62A11.83,11.83,0,0,0,230.83,103.41Z"/><path class="cls-2" d="M261.28,63.45v42.76h4.42v4.43H248v-4.43h4.42V67.87H248V63.45Z"/><path class="cls-2" d="M35.82,196.78V178.45h6.5q9.76,0,9.77,8.93a9.05,9.05,0,0,1-2.67,6.85,9.82,9.82,0,0,1-7.1,2.55Zm4.13-15v11.62h2a5.49,5.49,0,0,0,4.21-1.61,6.09,6.09,0,0,0,1.53-4.38,5.55,5.55,0,0,0-1.51-4.13,5.79,5.79,0,0,0-4.26-1.5Z"/><path class="cls-2" d="M62.77,197.1a8.55,8.55,0,0,1-6.42-2.56,9.23,9.23,0,0,1-2.48-6.68,9.88,9.88,0,0,1,2.52-7,8.73,8.73,0,0,1,6.68-2.68,8.34,8.34,0,0,1,6.35,2.57,9.49,9.49,0,0,1,2.42,6.78,9.74,9.74,0,0,1-2.51,7A8.65,8.65,0,0,1,62.77,197.1ZM63,181.69a4.17,4.17,0,0,0-3.45,1.63,6.83,6.83,0,0,0-1.28,4.32A6.69,6.69,0,0,0,59.5,192a4.09,4.09,0,0,0,3.35,1.59A4.15,4.15,0,0,0,66.24,192a6.6,6.6,0,0,0,1.25-4.27,7.17,7.17,0,0,0-1.21-4.44A4,4,0,0,0,63,181.69Z"/><path class="cls-2" d="M103,196.78H98.93v-11c0-1.18,0-2.49.15-3.92H99a20.29,20.29,0,0,1-.58,2.42l-4.3,12.47H90.73l-4.38-12.34a23,23,0,0,1-.57-2.55h-.12c.11,1.8.17,3.39.17,4.75v10.14H82.11V178.45h6l3.74,10.87a15.23,15.23,0,0,1,.66,2.62h.07c.23-1,.48-1.9.73-2.65l3.75-10.84H103Z"/><path class="cls-2" d="M121.87,188.84q0,8.26-7.7,8.26-7.47,0-7.47-8.07V178.45h4.14v10.64c0,3,1.16,4.45,3.48,4.45s3.42-1.44,3.42-4.3V178.45h4.13Z"/><path class="cls-2" d="M142.07,196.78h-4.16l-7.56-11.52a14.84,14.84,0,0,1-.92-1.52h-.05c.06.65.1,1.64.1,3v10.07h-3.9V178.45H130l7.27,11.16c.34.5.64,1,.93,1.5h.05a18.91,18.91,0,0,1-.11-2.52V178.45h3.9Z"/><path class="cls-2" d="M150.08,196.78H146V178.45h4.13Z"/><path class="cls-2" d="M167.23,196.13a12.09,12.09,0,0,1-5.25,1,8.8,8.8,0,0,1-6.63-2.48,9.06,9.06,0,0,1-2.42-6.61,9.68,9.68,0,0,1,2.72-7.13,9.48,9.48,0,0,1,7-2.74,13,13,0,0,1,4.53.68v4a8.07,8.07,0,0,0-4.2-1.1,5.55,5.55,0,0,0-4.17,1.63,6.05,6.05,0,0,0-1.58,4.4,6,6,0,0,0,1.49,4.24,5.3,5.3,0,0,0,4,1.58,8.66,8.66,0,0,0,4.43-1.18Z"/><path class="cls-2" d="M176.44,172.61l-4,4.13h-2.92l3.33-4.13Zm-2.09,24.17h-4.14V178.45h4.14Z"/><path class="cls-2" d="M182.36,190.47v6.31h-4.13V178.45h6.47q6.93,0,6.93,5.84a5.6,5.6,0,0,1-2,4.47,7.84,7.84,0,0,1-5.31,1.71Zm0-8.85v5.71H184q3.3,0,3.3-2.89t-3.3-2.82Z"/><path class="cls-2" d="M198,196.78h-4.13V178.45H198Z"/><path class="cls-2" d="M209.73,197.1a8.55,8.55,0,0,1-6.42-2.56,9.23,9.23,0,0,1-2.48-6.68,9.88,9.88,0,0,1,2.52-7,8.73,8.73,0,0,1,6.68-2.68,8.36,8.36,0,0,1,6.35,2.57,9.49,9.49,0,0,1,2.42,6.78,9.74,9.74,0,0,1-2.51,7A8.65,8.65,0,0,1,209.73,197.1Zm.18-15.41a4.17,4.17,0,0,0-3.45,1.63,6.83,6.83,0,0,0-1.28,4.32,6.69,6.69,0,0,0,1.28,4.31,4.09,4.09,0,0,0,3.35,1.59A4.15,4.15,0,0,0,213.2,192a6.6,6.6,0,0,0,1.25-4.27,7.17,7.17,0,0,0-1.21-4.44A4,4,0,0,0,209.91,181.69Z"/><path class="cls-2" d="M229.07,196.78V178.45h6.5q9.77,0,9.77,8.93a9.05,9.05,0,0,1-2.67,6.85,9.86,9.86,0,0,1-7.1,2.55Zm4.13-15v11.62h2.05a5.5,5.5,0,0,0,4.21-1.61,6.09,6.09,0,0,0,1.53-4.38,5.56,5.56,0,0,0-1.52-4.13,5.78,5.78,0,0,0-4.25-1.5Z"/><path class="cls-2" d="M259.17,196.78h-11V178.45h10.58v3.36H252.3v4.08h6v3.35h-6v4.19h6.87Z"/><path class="cls-2" d="M268.49,196.08V192a7.88,7.88,0,0,0,2.42,1.4,7.79,7.79,0,0,0,2.63.46,5.47,5.47,0,0,0,1.36-.14,3,3,0,0,0,1-.39,1.69,1.69,0,0,0,.58-.58,1.46,1.46,0,0,0,.19-.74,1.55,1.55,0,0,0-.31-1,3.29,3.29,0,0,0-.83-.78,9.14,9.14,0,0,0-1.26-.69c-.49-.22-1-.45-1.58-.68a7.94,7.94,0,0,1-3.2-2.18,4.78,4.78,0,0,1-1.05-3.12,5,5,0,0,1,.57-2.47,4.88,4.88,0,0,1,1.57-1.69,7.08,7.08,0,0,1,2.29-1,11.73,11.73,0,0,1,2.76-.31,17.22,17.22,0,0,1,2.54.17,10.14,10.14,0,0,1,2,.53v3.83a6,6,0,0,0-1-.57,8.77,8.77,0,0,0-1.12-.4,9.26,9.26,0,0,0-1.14-.24,8.25,8.25,0,0,0-1.08-.07,5.6,5.6,0,0,0-1.28.13,3.4,3.4,0,0,0-1,.38,1.89,1.89,0,0,0-.61.58,1.46,1.46,0,0,0,0,1.59,2.81,2.81,0,0,0,.69.69,7.9,7.9,0,0,0,1.08.64c.43.2.91.42,1.45.64a15.72,15.72,0,0,1,2,1,7.29,7.29,0,0,1,1.51,1.17,4.76,4.76,0,0,1,1,1.49,6,6,0,0,1-.25,4.53,4.8,4.8,0,0,1-1.58,1.68,6.77,6.77,0,0,1-2.32.93,13.36,13.36,0,0,1-2.8.28,15.64,15.64,0,0,1-2.87-.25A8.72,8.72,0,0,1,268.49,196.08Z"/><path class="cls-2" d="M299.81,196.78h-4.5L294,192.7h-6.52l-1.29,4.08h-4.48l6.68-18.33h4.89Zm-4.45-24a4.63,4.63,0,0,1-.71,2.77,2.25,2.25,0,0,1-1.93,1,4.54,4.54,0,0,1-2.15-.56,4.31,4.31,0,0,0-1.57-.6c-.69,0-1,.46-1,1.38h-1.8a4.7,4.7,0,0,1,.7-2.76,2.3,2.3,0,0,1,2-1,4.45,4.45,0,0,1,2.15.62,3.57,3.57,0,0,0,1.54.57c.66,0,1-.48,1-1.42Zm-2.3,16.76-2-6.16a8.43,8.43,0,0,1-.3-1.65h-.1a6.9,6.9,0,0,1-.33,1.6l-2,6.21Z"/><path class="cls-2" d="M309,197.1a8.55,8.55,0,0,1-6.42-2.56,9.23,9.23,0,0,1-2.48-6.68,9.88,9.88,0,0,1,2.52-7,8.72,8.72,0,0,1,6.68-2.68,8.32,8.32,0,0,1,6.34,2.57,9.45,9.45,0,0,1,2.43,6.78,9.7,9.7,0,0,1-2.52,7A8.61,8.61,0,0,1,309,197.1Zm.18-15.41a4.17,4.17,0,0,0-3.45,1.63,6.83,6.83,0,0,0-1.28,4.32A6.69,6.69,0,0,0,305.7,192a4.09,4.09,0,0,0,3.35,1.59,4.15,4.15,0,0,0,3.39-1.55,6.6,6.6,0,0,0,1.25-4.27,7.23,7.23,0,0,0-1.21-4.44A4,4,0,0,0,309.15,181.69Z"/><path class="cls-2" d="M332.44,190.47v6.31h-4.13V178.45h6.47q6.93,0,6.93,5.84a5.6,5.6,0,0,1-2,4.47,7.88,7.88,0,0,1-5.31,1.71Zm0-8.85v5.71h1.62q3.3,0,3.3-2.89t-3.3-2.82Z"/><path class="cls-2" d="M359,196.78h-4.5l-1.31-4.08H346.7l-1.29,4.08h-4.48l6.68-18.33h4.9Zm-6.75-7.25-2-6.16a7.7,7.7,0,0,1-.31-1.65h-.1a6.88,6.88,0,0,1-.32,1.6l-2,6.21Z"/><path class="cls-2" d="M375.3,188.84q0,8.26-7.7,8.26-7.46,0-7.46-8.07V178.45h4.14v10.64c0,3,1.16,4.45,3.48,4.45s3.41-1.44,3.41-4.3V178.45h4.13Z"/><path class="cls-2" d="M389.94,196.78H379V178.45h4.12v15h6.8Z"/><path class="cls-2" d="M399.64,197.1a8.55,8.55,0,0,1-6.42-2.56,9.23,9.23,0,0,1-2.48-6.68,9.88,9.88,0,0,1,2.52-7,8.73,8.73,0,0,1,6.68-2.68,8.36,8.36,0,0,1,6.35,2.57,9.49,9.49,0,0,1,2.42,6.78,9.74,9.74,0,0,1-2.51,7A8.65,8.65,0,0,1,399.64,197.1Zm.18-15.41a4.17,4.17,0,0,0-3.45,1.63,6.83,6.83,0,0,0-1.28,4.32,6.69,6.69,0,0,0,1.28,4.31,4.09,4.09,0,0,0,3.35,1.59,4.15,4.15,0,0,0,3.39-1.55,6.6,6.6,0,0,0,1.25-4.27,7.17,7.17,0,0,0-1.21-4.44A4,4,0,0,0,399.82,181.69Z"/><polygon class="cls-3" points="280.3 25.78 409.77 86.1 408 71.42 280.3 0 280.3 25.78"/><polygon class="cls-4" points="280.3 78.9 384.21 108.11 383.99 97.79 280.3 63.84 280.3 78.9"/><polyline class="cls-5" points="282.89 100.09 280.3 99.45 280.3 161.61 283.25 161.61 283.25 161.61 287.7 161.61 287.7 161.61 294.3 161.61 294.3 102.62 287.01 101.03"/><polyline class="cls-6" points="343.78 161.61 348.68 161.61 345.14 113.77 341.13 112.74 341.13 112.74 337.56 111.52 337.56 111.52 333.28 110.39 335.02 161.51 340.54 161.61 343.78 161.61"/><path class="cls-2" d="M56.53,161.61v-4.93h-.11a9.94,9.94,0,0,1-4,4.12,11.75,11.75,0,0,1-5.87,1.46,11.39,11.39,0,0,1-4.77-1,10.29,10.29,0,0,1-3.68-2.8,13.13,13.13,0,0,1-2.37-4.43,19.47,19.47,0,0,1-.83-5.88,19.88,19.88,0,0,1,.92-6.2,14.22,14.22,0,0,1,2.6-4.82,11.57,11.57,0,0,1,4-3.11,12.28,12.28,0,0,1,5.27-1.11q6,0,8.67,4.84h.11V120.13H60v41.48Zm0-16.91a9.2,9.2,0,0,0-.63-3.42,8.38,8.38,0,0,0-1.75-2.76,8,8,0,0,0-2.69-1.86A8.55,8.55,0,0,0,48,136a9,9,0,0,0-3.83.82,8.4,8.4,0,0,0-3,2.37,11.23,11.23,0,0,0-1.94,3.76,18.4,18.4,0,0,0-.07,9.8A10.39,10.39,0,0,0,41,156.27a7.82,7.82,0,0,0,2.78,2.22,8.23,8.23,0,0,0,3.58.76,9.35,9.35,0,0,0,3.85-.76,8.41,8.41,0,0,0,2.9-2.11,9.51,9.51,0,0,0,1.83-3.14,11.41,11.41,0,0,0,.64-3.86Z"/><path class="cls-2" d="M69.65,148.23a15.68,15.68,0,0,0,.69,4.62,9.71,9.71,0,0,0,1.89,3.48,8,8,0,0,0,3,2.17,10.09,10.09,0,0,0,4,.75,14.23,14.23,0,0,0,9-3.31v3.45a16.28,16.28,0,0,1-9.74,2.87,13,13,0,0,1-5.12-1,10.68,10.68,0,0,1-3.91-2.86,13,13,0,0,1-2.49-4.61,20.54,20.54,0,0,1-.87-6.24,17.12,17.12,0,0,1,1-5.82,14.37,14.37,0,0,1,2.66-4.64,12,12,0,0,1,4-3.06,11.64,11.64,0,0,1,5.09-1.11,11.42,11.42,0,0,1,4.78.94,9.37,9.37,0,0,1,3.49,2.7,12.12,12.12,0,0,1,2.15,4.26,20.12,20.12,0,0,1,.74,5.64v1.75Zm16.64-3.06a10.73,10.73,0,0,0-2.08-6.79A6.85,6.85,0,0,0,78.65,136a8.5,8.5,0,0,0-3.29.63,8,8,0,0,0-2.67,1.82,9.79,9.79,0,0,0-1.9,2.9,14.56,14.56,0,0,0-1.05,3.85Z"/><path class="cls-2" d="M139.06,160.16a24.17,24.17,0,0,1-10.37,2.13,19,19,0,0,1-7.55-1.46,17,17,0,0,1-5.79-4.06,18.37,18.37,0,0,1-3.69-6.19,22.67,22.67,0,0,1-1.3-7.82,24.38,24.38,0,0,1,1.38-8.3,19.75,19.75,0,0,1,4-6.68,18.17,18.17,0,0,1,6.23-4.44,20,20,0,0,1,8.19-1.62,24.59,24.59,0,0,1,8.95,1.53v3.89a19.79,19.79,0,0,0-9-2.11,16.57,16.57,0,0,0-6.76,1.31,14.08,14.08,0,0,0-5,3.66,16.18,16.18,0,0,0-3.09,5.52,21.89,21.89,0,0,0-1.07,7,20.75,20.75,0,0,0,1,6.39,15.31,15.31,0,0,0,2.83,5.24,13.48,13.48,0,0,0,4.67,3.56A15.14,15.14,0,0,0,129.1,159a20.21,20.21,0,0,0,10-2.38Z"/><path class="cls-2" d="M156.17,162.26a14.18,14.18,0,0,1-5.59-1,11.84,11.84,0,0,1-4.23-2.94,12.82,12.82,0,0,1-2.68-4.55,17.69,17.69,0,0,1-.93-5.88,18.76,18.76,0,0,1,1-6.27,13.19,13.19,0,0,1,2.81-4.69,11.8,11.8,0,0,1,4.39-2.94,15.44,15.44,0,0,1,5.74-1,14.18,14.18,0,0,1,5.47,1,11,11,0,0,1,4.13,2.88,12.84,12.84,0,0,1,2.6,4.6,19.12,19.12,0,0,1,.91,6.15,18,18,0,0,1-1,6,13.64,13.64,0,0,1-2.69,4.64,12.12,12.12,0,0,1-4.27,3A14.47,14.47,0,0,1,156.17,162.26Zm.27-26.29a10.45,10.45,0,0,0-4.15.8,8.65,8.65,0,0,0-3.19,2.31,10.28,10.28,0,0,0-2,3.72,16.34,16.34,0,0,0-.71,5,14.83,14.83,0,0,0,.71,4.73,10.6,10.6,0,0,0,2,3.62,8.77,8.77,0,0,0,3.16,2.31,10.32,10.32,0,0,0,4.16.8,10.43,10.43,0,0,0,4.16-.78,8.18,8.18,0,0,0,3.06-2.27,10,10,0,0,0,1.9-3.65,17.2,17.2,0,0,0,.65-4.92c0-3.78-.84-6.66-2.52-8.66A8.88,8.88,0,0,0,156.44,136Z"/><path class="cls-2" d="M194.65,161.61V145.47q0-9.5-6.89-9.5a8,8,0,0,0-3.39.73,8.09,8.09,0,0,0-2.7,2,9.39,9.39,0,0,0-1.78,3,11.06,11.06,0,0,0-.64,3.82v16h-3.5v-28h3.5v4.87h.11a10.11,10.11,0,0,1,9.38-5.52,8.48,8.48,0,0,1,7,3q2.4,3,2.4,8.62v17.07Z"/><path class="cls-2" d="M217.22,161.28a8.74,8.74,0,0,1-3.94.9q-6.79,0-6.79-7.82v-17.7h-4.92v-3.07h4.92v-7l3.5-1.15v8.2h7.23v3.07H210v17.15a7,7,0,0,0,.93,4.1,3.66,3.66,0,0,0,3.15,1.26,5.75,5.75,0,0,0,3.15-1Z"/><path class="cls-2" d="M238.7,161.61v-5h-.11a10.26,10.26,0,0,1-3.73,4.16,9.93,9.93,0,0,1-5.35,1.47,11,11,0,0,1-3.65-.57,7.85,7.85,0,0,1-2.77-1.63,7.18,7.18,0,0,1-1.75-2.53,8.36,8.36,0,0,1-.61-3.25,8,8,0,0,1,2.35-6.06q2.35-2.26,7.11-2.95L238.7,144q0-8.07-6.26-8.07a13.71,13.71,0,0,0-9.09,3.59v-3.83a12.19,12.19,0,0,1,2-1.14,18.53,18.53,0,0,1,2.34-.87,19,19,0,0,1,2.53-.58,17,17,0,0,1,2.53-.2c3.12,0,5.47.87,7.07,2.62s2.39,4.36,2.39,7.83v18.22ZM231.48,148a22,22,0,0,0-3.23.68A6.83,6.83,0,0,0,226,149.8a4.07,4.07,0,0,0-1.29,1.73,6.87,6.87,0,0,0-.41,2.53,5.32,5.32,0,0,0,.4,2.08,4.52,4.52,0,0,0,1.15,1.65,5,5,0,0,0,1.83,1.08,7.16,7.16,0,0,0,2.45.38,8,8,0,0,0,6.11-2.68,9.1,9.1,0,0,0,1.78-3,10.86,10.86,0,0,0,.64-3.8V147Z"/><path class="cls-2" d="M247.69,156.57a10.68,10.68,0,0,0,1.73,1.12,13.56,13.56,0,0,0,1.91.85,12.15,12.15,0,0,0,2,.54,11.77,11.77,0,0,0,1.91.17q6.22,0,6.23-4.67a3.72,3.72,0,0,0-.43-1.85,5.06,5.06,0,0,0-1.26-1.42,10.49,10.49,0,0,0-2-1.19c-.77-.37-1.64-.75-2.6-1.15a25.52,25.52,0,0,1-3.34-1.62,9.81,9.81,0,0,1-2.3-1.79,6.43,6.43,0,0,1-1.34-2.13,7.53,7.53,0,0,1-.44-2.64,6.68,6.68,0,0,1,.81-3.31,7.54,7.54,0,0,1,2.18-2.46,10,10,0,0,1,3.16-1.55,13.24,13.24,0,0,1,3.76-.53A13.9,13.9,0,0,1,264,134.3V138a12.29,12.29,0,0,0-6.78-2,8.12,8.12,0,0,0-2.39.33,5.64,5.64,0,0,0-1.85.93,4.22,4.22,0,0,0-1.19,1.44,4,4,0,0,0-.42,1.85,4.61,4.61,0,0,0,.32,1.81,3.94,3.94,0,0,0,1,1.41,8.74,8.74,0,0,0,1.81,1.21c.73.38,1.63.79,2.69,1.23a33.76,33.76,0,0,1,3.5,1.62,10.88,10.88,0,0,1,2.44,1.76,6.3,6.3,0,0,1,1.42,2.1,7.28,7.28,0,0,1,.46,2.7,7.06,7.06,0,0,1-.78,3.36,7.17,7.17,0,0,1-2.16,2.49,9.71,9.71,0,0,1-3.24,1.53,14.87,14.87,0,0,1-4,.52,13.41,13.41,0,0,1-7.14-1.78Z"/></g></g></svg>